<?xml version="1.0" encoding="UTF-8"?>
<svg xmlns="http://www.w3.org/2000/svg" xmlns:xlink="http://www.w3.org/1999/xlink" width="250pt" height="250pt" viewBox="0 0 250 250" version="1.1">
<g id="surface1">
<path style=" stroke:none;fill-rule:nonzero;fill:rgb(47.058824%,72.54902%,92.156863%);fill-opacity:1;" d="M 91.464844 189.023438 L 158.535156 189.023438 L 158.535156 225.609375 L 91.464844 225.609375 Z M 91.464844 189.023438 "/>
<path style=" stroke:none;fill-rule:nonzero;fill:rgb(0%,32.156863%,70.588235%);fill-opacity:1;" d="M 0 15.242188 L 250 15.242188 L 250 198.171875 L 0 198.171875 Z M 0 15.242188 "/>
<path style=" stroke:none;fill-rule:nonzero;fill:rgb(0%,21.568627%,47.058824%);fill-opacity:1;" d="M 125 15.242188 L 250 15.242188 L 250 198.171875 L 125 198.171875 Z M 125 15.242188 "/>
<path style=" stroke:none;fill-rule:nonzero;fill:rgb(68.235294%,83.529412%,95.294118%);fill-opacity:1;" d="M 70.121094 216.464844 L 179.878906 216.464844 L 179.878906 234.757812 L 70.121094 234.757812 Z M 70.121094 216.464844 "/>
<path style=" stroke:none;fill-rule:nonzero;fill:rgb(57.647059%,78.039216%,93.72549%);fill-opacity:1;" d="M 125 216.464844 L 179.878906 216.464844 L 179.878906 234.757812 L 125 234.757812 Z M 125 216.464844 "/>
<path style=" stroke:none;fill-rule:nonzero;fill:rgb(100%,100%,100%);fill-opacity:1;" d="M 165.003906 72.800781 L 152.070312 85.734375 L 173.039062 106.707031 L 152.070312 127.679688 L 165.003906 140.613281 L 198.910156 106.707031 Z M 165.003906 72.800781 "/>
<path style=" stroke:none;fill-rule:nonzero;fill:rgb(100%,100%,100%);fill-opacity:1;" d="M 76.960938 106.707031 L 97.929688 85.734375 L 84.996094 72.800781 L 51.089844 106.707031 L 84.996094 140.613281 L 97.929688 127.679688 Z M 76.960938 106.707031 "/>
<path style=" stroke:none;fill-rule:nonzero;fill:rgb(100%,100%,100%);fill-opacity:1;" d="M 145.257812 54.878906 L 126.5625 54.878906 L 104.742188 158.535156 L 123.4375 158.535156 Z M 145.257812 54.878906 "/>
</g>
</svg>
